<?xml version="1.0" standalone="no"?><!DOCTYPE svg PUBLIC "-//W3C//DTD SVG 1.1//EN"
        "http://www.w3.org/Graphics/SVG/1.1/DTD/svg11.dtd">
<svg t="1632211360506" class="icon" viewBox="0 0 1024 1024" version="1.1" xmlns="http://www.w3.org/2000/svg" p-id="2457"
     width="16" height="16" xmlns:xlink="http://www.w3.org/1999/xlink" fill="grey">
    <defs>
        <style type="text/css"></style>
    </defs>
    <path d="M512 63.9c-247.3 0-447.8 200.5-447.8 447.8S264.7 959.6 512 959.6s447.8-200.5 447.8-447.8S759.3 63.9 512 63.9z m265.8 713.6c-34.5 34.5-74.7 61.7-119.5 80.6-46.3 19.6-95.5 29.5-146.3 29.5s-100-9.9-146.3-29.5c-44.7-18.9-84.9-46-119.5-80.6-34.5-34.5-61.7-74.7-80.6-119.5-19.6-46.3-29.5-95.5-29.5-146.3 0-50.8 9.9-100 29.5-146.3 18.9-44.7 46-84.9 80.6-119.5 34.5-34.5 74.7-61.6 119.5-80.6 46.3-19.6 95.5-29.5 146.3-29.5s100 9.9 146.3 29.5c44.7 18.9 84.9 46 119.5 80.6 34.5 34.5 61.7 74.7 80.6 119.5 19.6 46.3 29.5 95.5 29.5 146.3 0 50.8-9.9 100-29.5 146.3-19 44.7-46.1 84.9-80.6 119.5z"
          p-id="2458"></path>
    <path d="M702.8 319.2c-14.1-14.1-36.9-14.1-50.9 0L511.7 459.3 371.6 319.2c-14.1-14.1-36.9-14.1-50.9 0-14.1 14.1-14.1 36.9 0 50.9l140.1 140.1-140.1 140.1c-14.1 14.1-14.1 36.9 0 50.9 7 7 16.2 10.5 25.5 10.5s18.4-3.5 25.5-10.5l140.1-140.1 140.1 140.1c7 7 16.2 10.5 25.5 10.5 9.2 0 18.4-3.5 25.5-10.5 14.1-14.1 14.1-36.9 0-50.9L562.6 510.2l140.1-140.1c14.1-14.1 14.1-36.9 0.1-50.9z"
          p-id="2459"></path>
</svg>