<?xml version="1.0" standalone="no"?><!DOCTYPE svg PUBLIC "-//W3C//DTD SVG 1.1//EN" "http://www.w3.org/Graphics/SVG/1.1/DTD/svg11.dtd"><svg t="1634825097696" class="icon" viewBox="0 0 1024 1024" version="1.1" xmlns="http://www.w3.org/2000/svg" p-id="5365" width="32" height="32" xmlns:xlink="http://www.w3.org/1999/xlink"><defs><style type="text/css"></style></defs><path d="M897 100H130.1c-18.1 1.1-31.9 16.5-31 34.6v758.8c-0.1 11 4.7 21.4 13.3 28.3v5.5h11.1c2.2 0.5 4.4 0.8 6.6 0.8H897c2.2 0 4.4-0.3 6.6-0.8h1.5v-0.5c14.1-4.9 23.3-18.4 22.9-33.3V134.6c0.9-18.1-13-33.5-31-34.6zM221.5 897.7h-93.7c-1.3-0.9-2.1-2.5-2.1-4.1v-89.9h95.9v94h-0.1z m0-123.7h-95.9v-97.7h95.9V774z m0-127.2h-95.9V543.7h95.9V646.8z m0-132.6h-95.9V402.6h95.9V514.2z m0-141.1h-95.9V264.2h95.9v108.9zM445 897.5H248.1v-94H445v94z m0-123.7H248.1v-97.5H445v97.5z m0-127.2H248.1V543.7H445v102.9z m0-132.6H248.1V402.6H445V514z m0-141H248.1V264.1H445V373z m0-138.6H248.1V129.6H445v104.8z m225.6 663.1H471.5v-94h199.1v94z m0-123.7H471.5v-97.5h199.1v97.5z m0-127.2H471.5V543.7h199.1v102.9z m0-132.6H471.5V402.6h199.1V514z m0-141H471.5V264.1h199.1V373z m0-138.6H471.5V129.6h199.1v104.8z m230.8 659c0 1.6-0.8 3.2-2.1 4.1H697.2v-94h204.2v89.9z m0-119.6H697.2v-97.5h204.2v97.5z m0-127.2H697.2V543.7h204.2v102.9z m0-132.6H697.2V402.6h204.2V514z m0-141H697.2V264.1h204.2V373z m0-138.6H697.2V129.6H897c2.6 0.2 4.6 2.4 4.4 5v99.8zM650.3 345.5H491v-62h159.3v62z" p-id="5366"></path></svg>